<?xml version="1.0" encoding="utf-8"?>
<!-- Generator: Adobe Illustrator 21.0.2, SVG Export Plug-In . SVG Version: 6.00 Build 0)  -->
<svg version="1.1" id="Layer_1" xmlns="https://www.w3.org/2000/svg" xmlns:xlink="https://www.w3.org/1999/xlink" x="0px" y="0px"
	 viewBox="0 0 1000 330" style="enable-background:new 0 0 1000 330;" xml:space="preserve">
<style type="text/css">
	.st0{fill:#37E4C6;}
	.st1{fill:#A3A5A1;}
	.st2{fill:#FEFEFE;}
	.st3{fill:#090909;}
</style>
<path class="st0" d="M100.6,9.6C111.2,0.9,125.9-1,139,1.4c18.6,3.2,35.3,13,50.2,24.2c14.7,10.9,27.9,23.6,39.9,37.3
	c-10.7-10.4-22.1-20.2-34.7-28.2c-9.3-6.1-19.7-10.7-30.6-13.3c-9.9-1.8-20.8-2-30,2.9c-7,3.6-12.6,9.8-15.8,17
	c-4.9,10.6-5.8,22.4-5.8,33.9c-0.1,17.6,4.2,35,9.7,51.6c4.6,13.4,9.9,26.6,16.4,39.2c14.4,28.7,32.3,56,55,78.8
	c14.3,14.6,29.8,28.5,48.4,37.3c10,5.1,20.9,8.6,32.2,9.2c8.8-0.1,17.8-2.9,24.4-8.9c7.8-6.9,11.6-17.2,13.3-27.2
	c3-17.5,0.4-35.2-2.5-52.5c6,21.6,10.9,43.8,10.4,66.3c-0.3,15.9-3,32.7-12.9,45.6c-6.6,8.8-17,13.7-27.7,15.4h-9.6
	c-22.3-2.7-42.6-13.7-60.2-27.3c-17-13.5-32.5-28.8-46.4-45.5c-28.3-34.9-51.1-74.3-66.3-116.6c-9.3,0.7-18.2-2.3-27.2-3.5
	c-13.4-2.4-26.3-7.2-38.7-12.6c-8-3.4-15.6-8.2-21.5-14.6c-3.7-4-6.2-8.8-8.9-13.4v-0.5c1.1,0.1,2.3,0.2,3.4,0.3
	c1,0.7,2,1.3,3.1,1.8c18.1,7.6,36.6,14.1,55.6,19.2c9.2,2.3,18.6,4.1,28.1,3.7C84.2,96.4,78.7,70.6,83,45
	C85,31.8,90.1,18.3,100.6,9.6z"/>
<path class="st1" d="M540.3,42.4c11.5-0.6,23.1-0.3,34.7-0.3c5.2-0.1,10.5-0.5,15.8,0.2c1.8,14.2,2.5,28.5,4.2,42.7
	c2.4,27.3,5,54.6,7.5,81.8c-11.3-0.2-22.7,0-34-0.1c-0.8-7.1-1.1-14.2-1.9-21.2c-14.9-0.1-29.8,0-44.8,0
	c-3.6,6.9-6.7,14.1-10.5,20.8c-1.3,0.6-2.9,0.4-4.2,0.5c-10.1-0.1-20.2,0-30.2-0.1c4.8-10.9,10.7-21.2,16-31.9
	C503.8,113.2,515,91.7,526,70C530.8,60.8,535.2,51.4,540.3,42.4z"/>
<path class="st1" d="M637.1,42.2c15.3-0.3,30.6,0,45.9-0.1c3.5-0.3,7-0.4,10.5,0.2c4.9,31.8,10.2,63.5,15.2,95.3c0.4,0,1.2,0,1.6,0
	c6-31.8,12.1-63.6,18-95.4c9.5-1,19.1,0.2,28.6-0.3c1.6,0,3.2,0.2,4.8,0.4c-9.2,41.4-17.6,83-26.6,124.5
	c-18.9-0.1-37.8,0.1-56.8-0.1c-5-31.8-10-63.7-15-95.5c-0.4,0.1-1.1,0.4-1.5,0.5c-5.7,31.8-12,63.4-17.9,95.1
	c-11.1-0.1-22.3,0.3-33.4-0.2C619.8,125.2,628.1,83.6,637.1,42.2z"/>
<path class="st1" d="M781.2,42.2c11.6-0.8,23.2,0,34.8-0.2c7.7-0.5,15.4,0.6,23.1-0.1c11.3,1,23.7-0.7,34,5.2
	c5.1,2.6,8,8.2,8.7,13.8c1.1,8.5-0.9,16.9-2.7,25.2c-2.1,9.4-5,19.9-13.5,25.5c-5.3,3.9-12,4.8-17.8,7.6c5.4,0.8,11.5,1.5,15.4,5.9
	c4,4.3,4.2,10.5,3.1,16c-1.8,8.6-3.7,17.2-5.6,25.8c-11,0-22.1,0.2-33.1-0.1c1.4-6,2.6-12.1,3.9-18.1c0.7-3.8,1-8.2-1.3-11.6
	c-2.7-3.1-7.2-3.1-10.9-3.3c-7.4,0-14.8-0.1-22.1,0c-2.2-0.5-2.5,1.9-2.8,3.4c-2,9.9-4,19.9-6.2,29.8c-11.2-0.1-22.3,0.3-33.5-0.2
	C763.6,125.1,772.3,83.6,781.2,42.2z"/>
<path class="st1" d="M930.3,42.2c13.2-0.2,26.4-0.6,39.6-0.1c3.8-0.2,7.6-0.4,11.4,0.2c3.5,41.4,7.5,82.9,11.4,124.3
	c-11.4,0.3-22.9,0.1-34.3,0.1c-0.9-7.1-0.9-14.2-1.8-21.2c-14.9,0-29.9-0.1-44.8,0c-3.6,7.1-7,14.3-10.7,21.3
	c-11.4-0.1-22.8,0-34.2-0.1c3.2-7.5,7.4-14.6,11-21.9C895.3,110.6,912.8,76.4,930.3,42.2z"/>
<path class="st2" d="M560.2,68c0.3-0.2,0.9-0.6,1.2-0.8c0.8,17.9,2.8,35.7,3.5,53.6c-10.3,0-20.6,0-30.8,0
	C542.7,103.2,551.6,85.7,560.2,68z"/>
<path class="st2" d="M950.8,67.5c0.8,2.4,1,5,1.1,7.5c1,15.3,2.2,30.6,3.1,45.8c-10.3-0.1-20.6,0.2-30.8-0.2
	C933.3,103.1,941.7,85.1,950.8,67.5z"/>
<path class="st2" d="M808.2,71.4c9.6-0.4,19.2-0.1,28.8-0.1c2.8,0.2,7.1,0.2,8.1,3.5c1.4,3.8,0.3,7.9-0.4,11.7
	c-1.1,4.7-1.8,9.6-4.5,13.7c-2.4,3.6-7.1,4.6-11.1,4.5c-9.3,0-18.6,0-28,0C803.3,93.6,805.4,82.4,808.2,71.4z"/>
<path class="st0" d="M135.1,121.2c61.6-0.1,123.3,0,184.9,0c3.7,0,7.4-0.1,11,0.2c13.8,1.6,27.6,3.6,40.8,8.1
	c14.7,5,29.6,10.9,41.4,21.2c5.5,4.6,10,10.3,14.1,16.2c-8.2,4.1-16.8,7.3-25.2,10.8c-9.7,3.9-19.9,6.2-30.1,8.3
	c-13.6,2.1-27.2,4.5-40.9,4.6c-4,0.1-7.4-2.4-11-3.8c-10.2-4.1-19.4-10.3-28.2-16.8c-10.3-7.5-18.6-17.8-23.9-29.4
	c-42.1-0.1-84.2,0.1-126.3-0.1c-1.3-3.4-2.5-6.9-3.8-10.3C136.9,127.3,136,124.3,135.1,121.2z"/>
<path class="st2" d="M338,133.2c3.7,0,7.4,0.2,11,1c15.2,2.7,30,7.7,43.2,15.7c7.3,4.4,15,8.3,21.8,13.5
	c-19.5-3.9-38.9-8.2-58.4-12.5C347.5,148,342.3,140.4,338,133.2z"/>
<path class="st3" d="M469.1,214c8.1-1,16.6-0.5,24.2,2.9c-0.7,1.7-1.4,3.4-2.1,5.2c-0.4,0.9-0.7,1.9-1,2.8
	c-6.3-2.8-13.5-3.4-20.2-2.1c-9.5,2.8-13.6,13.2-14.6,22.2c-1.2,5,0.2,10,0.5,15c2.1,7.2,6.6,14.5,14.1,16.8c5.9,1.4,13,1,17.6-3.4
	c1.1-0.8,1.9-2.4,3.4-2.4c1.7,2.2,3.3,4.6,5.1,6.8c-6.2,5.8-14.6,9.1-23.1,8.3c-11.3,0.3-21.2-7.8-25.3-18c-0.5-1.8-1.1-3.5-1.7-5.3
	c-0.4-2.3-0.7-4.6-1.2-6.9c-0.2-4.3-0.6-8.7,0.4-13c0.2-1.4,0.4-2.8,0.5-4.2c0.7-2,1.4-4,2-6.1c0.7-1.3,1.3-2.7,2-4
	C453.7,221.4,460.7,215.5,469.1,214z"/>
<path class="st3" d="M649.6,214.9c8.2-2.3,17.6-1.8,25.2,2.2c6.7,3.4,10.4,10.5,12.5,17.4c2.7,10.4,2.4,21.6-0.6,31.9
	c-2.6,9.2-10.3,17-19.7,19.1c-7.5,1.5-15.9,1.3-22.5-3.2c-7.2-5.1-11.5-13.5-13-22.1c-2.1-11.8-1.3-24.9,5.6-35.1
	C639.8,220.3,644.4,216.6,649.6,214.9z"/>
<path class="st3" d="M769.1,214c8.2-1.1,17.1-0.3,24.1,4.6c4.8,3.4,7.8,9,9.7,14.5c3.3,11,3.1,22.9-0.4,33.9
	c-2.8,9.3-10.9,17-20.5,18.7c-7,1.2-14.6,1-20.7-3c-7.8-5.1-12.4-13.9-13.9-22.9c-2.1-11.8-1.1-24.8,5.8-34.8
	C756.4,219.1,762.5,215.2,769.1,214z"/>
<path class="st3" d="M833.1,215.9c10.3-3.6,22.7-3.5,31.9,3.1c-0.4,1-0.8,2-1.2,3c-0.9,1.7-1.5,3.6-2.8,4.9c-4.1-2-8.1-4.7-12.9-4.6
	c-5.5-0.4-11.2,0.7-15.6,4.1c-4.5,3.6-7,9.1-8.7,14.5c-0.3,2.3-0.5,4.7-1,6.9c0,1.4,0,2.9,0,4.3c0.8,6.5,2,13.4,6.7,18.3
	c6.9,8.3,20.7,9.8,29,2.8c0-5.6,0-11.2,0-16.8c-3.2,0-6.5,0-9.7,0c0-2.7,0-5.4,0-8c6.5-0.1,13.1-0.1,19.6,0c0,10.2,0,20.4,0,30.6
	c-8.8,6-20,8.2-30.5,6.8c-10.6-1.5-19.3-9.9-22.9-19.8c-0.3-1-0.6-2.1-0.9-3.1c-0.5-2.2-0.9-4.6-1.4-6.8c-0.3-4-0.3-8.1,0-12.1
	c0.5-2,0.8-4,1.5-5.9c0.1-0.6,0.3-1.7,0.5-2.3C818.2,227.3,824.1,219,833.1,215.9z"/>
<path class="st3" d="M964.8,218.7c4.1-4.3,10.4-5.3,16.2-5c5.1-0.2,10.3,0.8,14.9,3.2c-1,2.9-1.9,5.8-2.8,8.7
	c-5.4-3-11.8-4.7-17.8-3.2c-2.8,0.6-4.2,3.3-5.8,5.5c-0.2,3.3-0.4,6.8,1.2,9.9c6,6.9,16,8,22.8,13.9c4.1,3.9,6,9.8,6.2,15.4
	c-0.2,8.3-6.3,15.4-14,17.9c-8.5,2.7-18.5,1.9-26-3.3c1.3-2.7,2.4-5.5,3.5-8.3c4.4,2,8.9,4.4,13.9,4.2c5,0.4,10.7-2.3,12.2-7.4
	c1.3-4.3,0.1-9.8-3.7-12.4C979,253,971,251.2,965,246C957.5,239.1,957.3,225.6,964.8,218.7z"/>
<path class="st3" d="M331.4,222.9c0-2.8,0-5.5,0-8.3c18.6,0,37.2-0.1,55.8,0c0,2.7,0,5.5,0,8.2c-7.9,0.3-15.7,0.1-23.6,0.2
	c0,20.6,0,41.2,0,61.7c-3.3,0-6.6,0.1-9.9-0.1c0.1-20.5,0-41.1,0-61.6C346.3,223,338.9,223.2,331.4,222.9z"/>
<path class="st3" d="M395.4,284.8c0-23.4,0-46.8,0-70.1c14,0,27.9,0,41.9,0c0,2.8,0,5.6,0,8.4c-10.9,0.1-21.8-0.2-32.7,0.1
	c0.1,0.7,0.4,2.1,0.5,2.8c-0.5,5.5-0.6,11.1,0.1,16.6c7.6-0.1,15.2,0,22.8,0c0.1,2.7,0.1,5.4,0.1,8.2c-7.6,0-15.2,0-22.8-0.1
	c-1.3,8.3-0.2,16.7-0.7,25.1c10.6,1.1,21.3,0.2,31.9,0.5c0,2.9,0,5.7,0,8.6C422.9,284.8,409.1,284.8,395.4,284.8z"/>
<path class="st3" d="M506.7,214.7c3.3-0.1,6.6,0,9.9,0c0,9.3,0,18.6,0,27.9c10.2,0,20.5,0,30.7,0c0-9.3,0-18.6,0-27.9
	c3.3,0,6.7-0.3,10,0.5c-0.1,23.2-0.1,46.3,0,69.5c-3.3,0.2-6.6,0.2-10,0.1c0-11.4,0.1-22.8,0-34.1c-10.2,0-20.4,0-30.7,0
	c-0.1,11.4,0,22.7,0,34.1c-3.3,0-6.6,0.1-10-0.1C506.7,261.4,506.7,238,506.7,214.7z"/>
<path class="st3" d="M571.2,214.7c1.2,0,2.5,0,3.8,0c11.4,15.7,22.8,31.5,34.4,47.1c0.2,0.4,0.8,1.1,1,1.4c0.2-16.2,0-32.4,0.1-48.5
	c3,0,6.1,0,9.2,0c0,23.8,0.1,47.5,0,71.3c-1.8,0.1-3.7-0.4-4.5-2.2c-11.6-16.4-23.3-32.7-34.8-49.1c-0.1,16.7,0,33.4-0.1,50.1
	c-3,0-6,0-9.1,0C571.2,261.4,571.2,238.1,571.2,214.7z"/>
<path class="st3" d="M700.2,276c0.2-20.4-0.1-40.9,0.1-61.3c3.1,0,6.2,0,9.4,0c0,20.5,0,41,0,61.5c10.6,0.1,21.3,0,31.9,0
	c0,2.9,0,5.7,0,8.5c-2.8,0-5.7,0-8.5,0c-10.9,0-21.9,0-32.8,0C700.2,281.9,700.2,278.9,700.2,276z"/>
<path class="st3" d="M884.4,284.8c0-23.4,0-46.8,0-70.1c3.2,0,6.4,0,9.6,0c0,23.4,0,46.8,0,70.1
	C890.8,284.8,887.6,284.8,884.4,284.8z"/>
<path class="st3" d="M909.6,214.7c14-0.1,28.1,0,42.2,0c0,2.8,0,5.6,0,8.4c-10.8,0-21.5,0-32.3,0c0,6.5,0,13,0,19.5
	c7.7,0,15.4,0,23.2,0c0,2.7,0.1,5.4,0.1,8.1c-7.7,0-15.4,0-23.2,0c-0.1,8.5-0.1,17,0,25.5c10.6,0,21.2,0,31.8,0c0,2.9,0,5.7,0,8.6
	c-13.9-0.1-27.8,0.1-41.7-0.1C909.7,261.4,909.6,238,909.6,214.7z"/>
<path class="st2" d="M653.6,222.8c6.7-1.4,14.7-0.5,19.6,4.9c5.5,6.3,6.2,15.3,6,23.3c-0.3,7.8-1.7,16.6-7.9,22.1
	c-4.2,4.3-10.7,5.1-16.4,4.1c-7.3-1.8-11-9.4-12.8-16.1c-2.2-9.9-2.2-20.7,2.1-30C645.8,227.1,649.4,223.9,653.6,222.8z"/>
<path class="st2" d="M763.9,225.9c4.5-4.4,11.5-4.2,17.3-3c6.6,1.5,11.2,7.6,12.6,14c2,8.9,1.8,18.4-0.8,27.1
	c-2.2,7.7-9.6,14.3-18,13.6c-4.9,0.5-9.4-2.2-12.3-6c-3-4.7-5.1-10-5.6-15.6c-0.8-4.6-0.8-9.3,0-13.9
	C757.8,236.3,759.5,230.1,763.9,225.9z"/>
</svg>
