<?xml version="1.0" encoding="utf-8"?>
<!-- Generator: Adobe Illustrator 21.1.0, SVG Export Plug-In . SVG Version: 6.00 Build 0)  -->
<svg version="1.1" id="Ebene_1" xmlns="http://www.w3.org/2000/svg" xmlns:xlink="http://www.w3.org/1999/xlink" x="0px" y="0px"
	 viewBox="0 0 1024 420" style="enable-background:new 0 0 1024 420;" xml:space="preserve">
<style type="text/css">
	.st0{fill:#202020;}
	.st1{fill-rule:evenodd;clip-rule:evenodd;fill:#FF655C;}
	.st2{fill:#7ADEF4;}
	.st3{fill:#FF655C;}
	.st4{fill-rule:evenodd;clip-rule:evenodd;fill:#7ADEF4;}
	.st5{fill:#FFFFFF;}
</style>
<g>
	<polygon class="st2" points="274,113.3 283.6,113.3 283.6,289.4 255.3,289.4 255.3,180.8 204.5,245.9 195.1,245.9 144.3,180.5 
		144.3,289.4 116,289.4 116,113.3 125.6,113.3 199.7,210.2 	"/>
	<path class="st3" d="M781.3,320.9c4.3-0.2,8.7-0.4,13.4-0.8v22c-4.3,0.9-8.9,1.6-13.9,2.1c-5,0.5-10.3,0.8-16,0.8
		c-23.5,0-45-4.9-64.3-14.7c-14.4-7.3-27.3-17.2-38.7-29.6c8.6-3.5,16.4-7.8,23.6-12.9c9.1,9.2,19,16.4,29.7,21.8
		c15.3,7.7,33.5,11.5,54.5,11.5C773.1,321.2,777,321.1,781.3,320.9z"/>
	<path class="st3" d="M703.6,167.5c4.9,10.9,7.4,22.7,7.4,35.3c0,12.8-2.5,24.6-7.4,35.6c-4.9,10.9-11.5,20.4-19.9,28.3
		c-3,2.9-6.3,5.5-9.7,8l-0.8-0.9c-6.4-7.5-12.4-13.6-18-18c-0.1-0.1-0.1-0.2,0-0.2c3-2.1,5.8-4.4,8.4-7c5.7-5.7,10.2-12.5,13.4-20.3
		c3.2-7.9,4.8-16.4,4.8-25.7c0-9.1-1.6-17.5-4.8-25.3c-3.2-7.8-7.7-14.5-13.4-20.2c-5.7-5.7-12.4-10.1-20-13.4
		c-7.7-3.2-16-4.9-25.1-4.9c-9.1,0-17.5,1.6-25.3,4.9c-7.8,3.2-14.4,7.7-20,13.3c-5.6,5.6-10,12.3-13.2,20.2
		c-3.2,7.9-4.8,16.4-4.8,25.5c0,9.3,1.6,17.8,4.8,25.7c3.2,7.9,7.6,14.7,13.2,20.3c5.6,5.7,12.3,10.1,20,13.4
		c7.8,3.2,16.2,4.9,25.3,4.9c2.9,0,5.6-0.2,8.3-0.5c3.2,1.8,6.5,4,9.2,6.2c7.7,6.3,10.4,8.7,14.1,13.9c0.1,0.2,0.2,0.3,0.4,0.5
		c-10.1,3.6-20.9,5.4-32.3,5.4c-12.8,0-24.9-2.3-36.2-6.8c-11.3-4.5-21.1-10.8-29.4-18.9c-8.3-8-14.8-17.5-19.6-28.5
		c-4.8-10.9-7.2-22.7-7.2-35.3c0-12.6,2.4-24.4,7.2-35.3c4.8-10.9,11.4-20.4,19.8-28.5c8.4-8,18.2-14.3,29.4-18.9
		c11.2-4.5,23.3-6.8,36.1-6.8c12.8,0,24.9,2.3,36.1,6.8c11.2,4.6,21,10.9,29.4,18.9C692.1,147.1,698.7,156.6,703.6,167.5z"/>
	<path class="st3" d="M912.1,167.5c-4.9-10.9-11.5-20.4-19.9-28.5c-8.4-8-18.2-14.3-29.4-18.9c-11.2-4.5-23.3-6.8-36.1-6.8
		c-12.8,0-24.9,2.3-36.1,6.8c-11.2,4.6-21,10.9-29.4,18.9c-8.4,8-15,17.5-19.8,28.5c-4.8,10.9-7.2,22.7-7.2,35.3
		c0,12.6,2.4,24.4,7.2,35.3c4.8,10.9,11.4,20.4,19.6,28.5c8.3,8,18.1,14.3,29.4,18.9c11.3,4.5,23.4,6.8,36.2,6.8
		c12.8,0,24.9-2.3,36.1-6.8c11.2-4.5,21-10.8,29.4-18.8c8.4-8,15-17.4,19.9-28.3c4.9-10.9,7.4-22.8,7.4-35.6
		C919.5,190.2,917,178.5,912.1,167.5z M885.6,228.3c-3.2,7.9-7.7,14.7-13.4,20.3c-5.7,5.7-12.4,10.2-20,13.4
		c-7.7,3.2-16,4.9-25.1,4.9c-9.1,0-17.5-1.6-25.3-4.9c-7.8-3.2-14.4-7.7-20-13.4c-5.6-5.7-10-12.5-13.2-20.3
		c-3.2-7.9-4.8-16.4-4.8-25.7c0-9.1,1.6-17.6,4.8-25.5c3.2-7.9,7.6-14.6,13.2-20.2c5.6-5.6,12.3-10,20-13.3
		c7.8-3.2,16.2-4.9,25.3-4.9c9.1,0,17.5,1.6,25.1,4.9c7.7,3.2,14.3,7.7,20,13.4c5.7,5.7,10.2,12.4,13.4,20.2
		c3.2,7.8,4.8,16.2,4.8,25.3C890.4,211.8,888.8,220.4,885.6,228.3z"/>
	<path class="st2" d="M495.2,167.5c-4.9-10.9-11.5-20.4-19.9-28.5c-8.4-8-18.2-14.3-29.4-18.9c-11.2-4.5-23.3-6.8-36.1-6.8
		c-12.8,0-24.9,2.3-36.1,6.8c-11.2,4.6-21,10.9-29.4,18.9c-8.4,8-15,17.5-19.8,28.5c-4.8,10.9-7.2,22.7-7.2,35.3
		c0,12.6,2.4,24.4,7.2,35.3c4.8,10.9,11.4,20.4,19.6,28.5c8.3,8,18.1,14.3,29.4,18.9c11.3,4.5,23.4,6.8,36.2,6.8
		c12.8,0,24.9-2.3,36.1-6.8c11.2-4.5,21-10.8,29.4-18.8c8.4-8,15-17.4,19.9-28.3c4.9-10.9,7.4-22.8,7.4-35.6
		C502.5,190.2,500.1,178.5,495.2,167.5z M468.6,228.3c-3.2,7.9-7.7,14.7-13.4,20.3c-5.7,5.7-12.4,10.2-20,13.4
		c-7.7,3.2-16,4.9-25.1,4.9c-9.1,0-17.5-1.6-25.3-4.9c-7.8-3.2-14.4-7.7-20-13.4c-5.6-5.7-10-12.5-13.2-20.3
		c-3.2-7.9-4.8-16.4-4.8-25.7c0-9.1,1.6-17.6,4.8-25.5c3.2-7.9,7.6-14.6,13.2-20.2c5.6-5.6,12.3-10,20-13.3
		c7.8-3.2,16.2-4.9,25.3-4.9c9.1,0,17.5,1.6,25.1,4.9c7.7,3.2,14.3,7.7,20,13.4c5.7,5.7,10.2,12.4,13.4,20.2
		c3.2,7.8,4.8,16.2,4.8,25.3C473.4,211.8,471.8,220.4,468.6,228.3z"/>
</g>
</svg>
