<?xml version="1.0" encoding="utf-8"?>
<!-- Generator: Adobe Illustrator 16.0.0, SVG Export Plug-In . SVG Version: 6.00 Build 0)  -->
<!DOCTYPE svg PUBLIC "-//W3C//DTD SVG 1.1//EN" "http://www.w3.org/Graphics/SVG/1.1/DTD/svg11.dtd">
<svg version="1.1" id="Слой_1" xmlns="http://www.w3.org/2000/svg" xmlns:xlink="http://www.w3.org/1999/xlink" x="0px" y="0px"
	 width="20.285px" height="30.163px" viewBox="0 0 20.285 30.163" enable-background="new 0 0 20.285 30.163" xml:space="preserve">
<g>
	<path d="M18.941,15.656l-8.757,4.865l-8.757-4.865c-0.203-0.113-0.457-0.072-0.613,0.101c-0.156,0.172-0.173,0.43-0.041,0.621l9,13
		c0.093,0.135,0.247,0.215,0.411,0.215s0.318-0.081,0.411-0.215l9-13c0.132-0.191,0.115-0.448-0.041-0.621
		C19.397,15.584,19.143,15.543,18.941,15.656z M10.184,28.215L2.815,17.572l7.125,3.958c0.15,0.084,0.335,0.084,0.485,0l7.125-3.958
		L10.184,28.215z"/>
	<path d="M0.941,14.53l9,5c0.075,0.042,0.159,0.063,0.243,0.063s0.167-0.021,0.243-0.063l9-5c0.019-0.01,0.03-0.028,0.046-0.041
		c0.034-0.024,0.066-0.048,0.093-0.081c0.02-0.024,0.032-0.052,0.047-0.079c0.013-0.024,0.033-0.043,0.042-0.07
		c0.003-0.009,0.001-0.019,0.004-0.028c0.002-0.009,0.01-0.016,0.012-0.025c0.005-0.022-0.001-0.044,0.001-0.066
		c0.003-0.038,0.007-0.074,0.002-0.111c-0.003-0.028-0.012-0.054-0.021-0.082c-0.011-0.037-0.024-0.071-0.043-0.104
		c-0.006-0.011-0.007-0.024-0.015-0.035l-9-13c-0.187-0.27-0.636-0.27-0.822,0l-9,13c-0.08,0.116-0.108,0.261-0.076,0.398
		C0.729,14.344,0.817,14.462,0.941,14.53z M10.184,18.521l-7.678-4.266l7.681-2.813l7.785,2.752L10.184,18.521z M10.184,1.972
		l7.709,11.135L10.35,10.44c-0.109-0.039-0.23-0.038-0.338,0.001l-7.625,2.793L10.184,1.972z"/>
</g>
</svg>
